<svg width="31" height="33" viewBox="0 0 31 33" fill="none" xmlns="http://www.w3.org/2000/svg">
<path d="M0.257636 30.9142C0.305297 30.809 0.346505 30.7092 0.367357 30.6197C0.483532 30.1207 0.625525 29.6339 0.823619 29.1472C1.21385 28.1892 1.70635 27.274 2.23957 26.3857C3.58204 24.1518 5.03324 21.9856 6.476 19.8141C6.63239 19.579 6.80269 19.3526 6.98886 19.0903C6.30273 19.136 5.66278 19.0878 5.04019 18.9209C3.03493 18.382 1.78927 17.0507 1.06789 15.196C0.852414 14.6426 0.685598 14.0706 0.751133 13.465C0.835534 12.6823 1.43429 12.0723 2.15517 12.0246C2.94159 11.9726 3.63467 12.4754 3.83624 13.2508C3.88092 13.4232 3.91021 13.5999 3.93951 13.7756C4.20462 15.3552 5.55107 16.7824 7.85125 16.4359C8.47482 16.3419 9.03931 16.1009 9.5626 15.7646C10.4329 15.2048 11.2486 14.5666 12.1393 14.036C13.4733 13.2421 14.8213 12.4749 16.3038 11.9692C16.4954 11.9039 16.3569 11.8197 16.3182 11.7598C15.9031 11.1178 15.5809 10.4304 15.4141 9.69248C14.6977 6.52402 15.6161 3.88664 18.2023 1.86017C21.1226 -0.428182 25.2001 -0.341048 28.1844 2.01984C31.0034 4.25027 31.8112 8.08513 30.1282 11.2998C29.3065 12.8692 28.0817 14.054 26.4895 14.8723C26.3425 14.9478 26.2656 15.0373 26.2422 15.195C26.1444 15.8439 25.996 16.4894 26.1241 17.1509C26.2437 17.7677 26.5426 18.2744 27.0867 18.622C28.0251 19.2222 28.8398 19.9475 29.4693 20.8626C29.8988 21.4867 30.221 22.1575 30.3699 22.9003C30.4727 23.4119 30.3719 23.8768 29.9613 24.2307C29.5905 24.5505 29.1585 24.6892 28.6755 24.4901C28.1422 24.2701 27.8324 23.8641 27.7808 23.3034C27.7609 23.0867 27.6835 22.9475 27.5207 22.8175C26.2159 21.7744 24.7399 21.1143 23.0648 20.904C22.7604 20.8656 22.4556 20.9001 22.1562 20.9814C21.9924 21.0257 21.9691 21.0895 22.053 21.2331C22.3389 21.7194 22.5757 22.2276 22.679 22.7844C22.7922 23.3954 22.8106 24.0126 22.7083 24.6245C22.5688 25.4603 21.899 25.9733 21.1469 25.8512C20.424 25.7339 19.9251 25.0076 20.1003 24.2044C20.1827 23.8262 20.0626 23.6251 19.7999 23.4061C19.3377 23.0201 18.8467 22.6822 18.2961 22.4301C18.2291 22.3994 18.1606 22.3668 18.0891 22.3517C18.0265 22.3381 17.9516 22.3386 17.9089 22.3994C17.8667 22.4603 17.9253 22.506 17.954 22.5508C18.1998 22.9305 18.386 23.3355 18.4778 23.777C18.9147 25.8692 17.5325 27.5603 15.351 27.5924C14.3337 27.6075 13.316 27.6075 12.2982 27.5987C11.7883 27.5943 11.3206 27.7238 10.8663 27.9346C10.5754 28.0694 10.283 28.2038 9.98163 28.3123C9.50004 28.4861 9.03435 28.361 8.74838 28.0061C8.47681 27.6688 8.47978 27.1664 8.75235 26.7551C8.91718 26.5064 9.14705 26.319 9.37195 26.1291C9.81034 25.7592 10.2532 25.3936 10.7005 25.0334C11.0788 24.7291 11.5162 24.587 12.0082 24.5924C12.6343 24.5992 13.2604 24.5938 13.9405 24.5938C13.5374 24.164 13.0995 23.8831 12.6224 23.6378C12.185 23.4129 11.8211 23.4046 11.3703 23.6626C8.78065 25.1429 6.34891 26.8218 4.24881 28.934C3.79305 29.3925 3.39884 29.9031 3.01308 30.4181C2.47887 31.1308 1.56387 32.3327 0.512825 32.1822C0.307283 32.1525 0.102238 32.0343 0.0292564 31.8434C-0.0740108 31.5718 0.118622 31.2204 0.257139 30.9137L0.257636 30.9142ZM28.3691 20.9824H28.3686C28.3418 20.8831 28.2609 20.8222 28.1983 20.7492C27.6994 20.169 27.0813 19.7236 26.4547 19.2898C25.9965 18.973 25.6132 18.5938 25.3386 18.1109C25.2865 18.0189 25.2746 17.8986 25.1629 17.8261C25.143 17.8952 25.1276 17.9493 25.1122 18.0038C24.7548 18.9369 25.0388 19.7834 25.926 20.2688C26.8762 20.7886 27.9044 21.1571 28.8616 21.6668C28.8681 21.6692 28.875 21.6712 28.8815 21.6736C28.874 21.6726 28.8661 21.6712 28.8587 21.6702C28.7901 21.4331 28.6223 21.2594 28.4655 21.0783L28.3696 20.9829L28.3691 20.9824ZM17.0395 6.23147C17.1259 6.03043 17.2083 5.82793 17.2992 5.62883C18.662 2.64487 22.1011 1.18842 25.2478 2.26907C26.2293 2.60592 27.0892 3.13895 27.823 3.86571C27.9645 4.0059 28.0479 4.1018 27.7982 4.23031C27.5778 4.34373 27.4646 4.56229 27.4214 4.80471C27.3444 5.23357 27.4616 5.59962 27.8334 5.8508C28.2127 6.10734 28.6213 6.13265 29.02 5.88926C29.1431 5.8143 29.1958 5.81332 29.2474 5.95011C29.3586 6.24607 29.4857 6.53424 29.5651 6.84286C29.727 7.47276 29.7349 8.11141 29.6962 8.75153C29.7533 8.75396 29.7478 8.72232 29.7518 8.70188C29.9683 7.58861 29.8422 6.50163 29.4232 5.45748C28.8045 3.91682 27.6532 2.83617 26.1876 2.07582C23.1536 0.502056 19.6143 1.44495 17.6934 4.05458C17.6616 4.05702 17.6487 4.07357 17.6557 4.10472C17.6363 4.13734 17.6169 4.16946 17.5971 4.20208C17.3176 4.53163 17.0971 4.90012 16.9095 5.2837C16.3326 6.4622 16.2968 7.69911 16.5267 8.96036C16.5932 9.32447 16.694 9.67787 16.8717 10.0089C16.6647 8.73595 16.6309 7.4747 17.039 6.23147H17.0395ZM20.5293 4.88065C19.9548 5.15957 19.5214 5.59816 19.1287 6.08008C18.0573 7.39341 17.89 9.14436 18.7285 10.5083C19.6282 11.9716 20.9925 12.71 22.7019 12.858C23.7827 12.9515 24.8263 12.7475 25.8282 12.3566C26.3554 12.1507 26.8613 11.8937 27.2833 11.5077C28.1735 11.0968 28.6139 10.4056 28.6154 9.44422C28.6154 9.37315 28.6511 9.29673 28.5335 9.24707C28.249 9.12684 28.0737 8.88491 27.9159 8.63616C27.7972 8.44924 27.828 8.40105 28.0504 8.39034C28.2733 8.37963 28.4992 8.41176 28.737 8.36503C28.0494 7.57547 27.3186 6.85941 26.6176 6.11707C26.42 5.90824 26.1856 5.74517 25.9309 5.60449C25.3789 5.29831 24.7826 5.11479 24.1689 4.98093C24.0314 4.95075 23.9743 4.89087 23.9569 4.76188C23.9247 4.52968 23.8855 4.29797 23.8442 4.06675C23.7544 3.56147 23.7032 3.04889 23.5682 2.511C23.1904 2.78798 22.8448 3.04792 22.4923 3.29813C21.8047 3.78685 21.1648 4.33107 20.5288 4.88065H20.5293ZM21.6166 22.6681C21.5967 22.2057 21.3658 21.8211 21.1295 21.4443C20.6385 20.6616 19.9593 20.021 19.4132 19.2796C19.3789 19.2334 19.3338 19.2271 19.2826 19.2314C19.3303 19.1535 19.2752 19.1102 19.2379 19.0445C18.95 18.5324 18.6978 18.0106 18.7747 17.3958C18.804 17.1636 18.943 17.0341 19.1362 16.9445C19.3338 16.853 19.5239 16.891 19.6942 17.02C19.8675 17.1514 19.9459 17.331 19.9777 17.5404C20.075 18.1795 20.354 18.7388 20.7716 19.2348C20.8962 19.4928 21.1037 19.6968 21.2526 19.9378C21.347 20.0906 21.4209 20.0804 21.557 19.9874C22.8761 19.0873 23.9147 17.9478 24.648 16.5439C24.6833 16.4758 24.7384 16.4115 24.7235 16.3098C24.1387 16.4159 23.5578 16.5167 22.965 16.5215C22.9168 16.5128 22.8687 16.4986 22.8205 16.4957C21.3946 16.4032 20.0561 16.0221 18.8412 15.2793C18.0002 14.7652 17.2729 14.1144 16.6587 13.3492C16.547 13.21 16.4587 13.1837 16.2889 13.2543C15.3664 13.6388 14.4872 14.1003 13.6292 14.607C12.2485 15.4224 10.9666 16.3526 9.88978 17.5413C8.55078 19.0202 7.47988 20.6869 6.3787 22.3317C5.78491 23.2187 5.22935 24.1304 4.66238 25.0343C4.57996 25.1658 4.38534 25.3201 4.4752 25.4428C4.56308 25.563 4.79891 25.5085 4.97168 25.4982C5.81917 25.4471 6.57133 25.1341 7.2798 24.6941C8.53787 23.9128 9.73587 23.04 11.0208 22.2996C11.7506 21.8795 12.4993 21.495 13.1218 20.9147C13.9956 20.1003 14.654 19.1803 14.7865 17.9639C14.8411 17.4639 14.9434 16.9689 15.1748 16.5142C15.3515 16.1667 15.6469 16.0435 15.9403 16.1657C16.2745 16.3044 16.4279 16.6418 16.3216 16.9966C16.1757 17.4844 16.1091 17.9736 16.2283 18.4813C16.4651 19.4933 17.116 20.1792 18.0027 20.6806C18.8393 21.1537 19.716 21.5573 20.5228 22.083C20.9354 22.3517 21.3107 22.6662 21.7149 23.0162C21.6885 22.8657 21.7064 22.7538 21.6161 22.6676L21.6166 22.6681Z" fill="url(#paint0_linear_5071_14023)"/>
<path d="M28.8606 21.6669C27.9034 21.1573 26.8757 20.7888 25.9249 20.2689C25.0377 19.7836 24.7537 18.9376 25.1112 18.0039C25.3078 18.57 25.7109 18.978 26.1786 19.3333C26.8613 19.8517 27.5921 20.3112 28.1993 20.9222C28.2415 20.9645 28.2891 21.0234 28.3681 20.982L28.3686 20.9825C28.3467 21.0658 28.3696 21.1071 28.4644 21.0779C28.6208 21.259 28.7891 21.4328 28.8576 21.6699L28.8606 21.6664V21.6669Z" fill="#0D1319"/>
<path d="M17.5972 4.20312C17.562 4.47962 17.3897 4.70402 17.2973 4.95958C17.1742 5.30179 17.0744 5.64789 17.0158 6.00567C17.0034 6.08015 16.9642 6.16388 17.0392 6.23251C16.6306 7.47575 16.6643 8.737 16.8719 10.0099C16.6941 9.67941 16.5933 9.32552 16.5268 8.96141C16.2969 7.70016 16.3322 6.46325 16.9096 5.28475C17.0978 4.90117 17.3177 4.53268 17.5972 4.20312Z" fill="#0D1319"/>
<path d="M28.4626 21.0778C28.3678 21.107 28.3455 21.0657 28.3668 20.9824C28.3986 21.0141 28.4309 21.0462 28.4626 21.0778Z" fill="#FEF5E6"/>
<path d="M17.6958 4.05469C17.7008 4.08438 17.6879 4.10044 17.6581 4.10483C17.6511 4.07367 17.664 4.05761 17.6958 4.05469Z" fill="#67AABB"/>
<path d="M28.8594 21.6694C28.8668 21.6704 28.8748 21.6719 28.8822 21.6728C28.8758 21.6704 28.8688 21.6684 28.8624 21.666L28.8594 21.6694Z" fill="#67AABB"/>
<path d="M22.1953 6.2163C22.4848 5.33279 22.7519 4.47946 23.1798 3.67773C23.2781 4.28962 23.3754 4.9015 23.4757 5.5129C23.4862 5.57667 23.4812 5.62437 23.4166 5.65406C23.0095 5.84148 22.6024 6.02889 22.1953 6.2163Z" fill="#C7F284"/>
<path d="M26.1503 7.83661C26.1568 8.19294 25.8668 8.49523 25.5059 8.50837C25.1559 8.52103 24.8336 8.20267 24.8282 7.83905C24.8232 7.49002 25.1221 7.17946 25.4741 7.16826C25.8281 7.15707 26.1434 7.46861 26.1498 7.83612L26.1503 7.83661Z" fill="#C7F284"/>
<defs>
<linearGradient id="paint0_linear_5071_14023" x1="27.8372" y1="7.468" x2="-4.41183" y2="20.447" gradientUnits="userSpaceOnUse">
<stop stop-color="#C7F284"/>
<stop offset="1" stop-color="#00BEF0"/>
</linearGradient>
</defs>
</svg>
